<svg aria-roledescription="gitGraph" role="graphics-document document" viewBox="-260.7421875 -34.70000076293945 1818.7421875 1156.9439697265625" height="100%" xmlns="http://www.w3.org/2000/svg" width="1818.7421875" id="graph-div" style="max-width: 100%;" xmlns:xlink="http://www.w3.org/1999/xlink"><style>@import url("https://cdnjs.cloudflare.com/ajax/libs/font-awesome/6.5.0/css/all.min.css");'</style><style>#graph-div{font-family:"trebuchet ms",verdana,arial,sans-serif;font-size:16px;fill:#ccc;}#graph-div .error-icon{fill:#a44141;}#graph-div .error-text{fill:#ddd;stroke:#ddd;}#graph-div .edge-thickness-normal{stroke-width:2px;}#graph-div .edge-thickness-thick{stroke-width:3.5px;}#graph-div .edge-pattern-solid{stroke-dasharray:0;}#graph-div .edge-pattern-dashed{stroke-dasharray:3;}#graph-div .edge-pattern-dotted{stroke-dasharray:2;}#graph-div .marker{fill:lightgrey;stroke:lightgrey;}#graph-div .marker.cross{stroke:lightgrey;}#graph-div svg{font-family:"trebuchet ms",verdana,arial,sans-serif;font-size:16px;}#graph-div .commit-id,#graph-div .commit-msg,#graph-div .branch-label{fill:lightgrey;color:lightgrey;font-family:'trebuchet ms',verdana,arial,sans-serif;font-family:var(--mermaid-font-family);}#graph-div .branch-label0{fill:#2c2c2c;}#graph-div .commit0{stroke:hsl(180, 1.5873015873%, 48.3529411765%);fill:hsl(180, 1.5873015873%, 48.3529411765%);}#graph-div .commit-highlight0{stroke:rgb(133.6571428571, 129.7428571428, 129.7428571428);fill:rgb(133.6571428571, 129.7428571428, 129.7428571428);}#graph-div .label0{fill:hsl(180, 1.5873015873%, 48.3529411765%);}#graph-div .arrow0{stroke:hsl(180, 1.5873015873%, 48.3529411765%);}#graph-div .branch-label1{fill:lightgrey;}#graph-div .commit1{stroke:hsl(321.6393442623, 65.5913978495%, 38.2352941176%);fill:hsl(321.6393442623, 65.5913978495%, 38.2352941176%);}#graph-div .commit-highlight1{stroke:rgb(93.5483870969, 221.4516129033, 139.677419355);fill:rgb(93.5483870969, 221.4516129033, 139.677419355);}#graph-div .label1{fill:hsl(321.6393442623, 65.5913978495%, 38.2352941176%);}#graph-div .arrow1{stroke:hsl(321.6393442623, 65.5913978495%, 38.2352941176%);}#graph-div .branch-label2{fill:lightgrey;}#graph-div .commit2{stroke:hsl(194.4, 16.5562913907%, 49.6078431373%);fill:hsl(194.4, 16.5562913907%, 49.6078431373%);}#graph-div .commit-highlight2{stroke:rgb(149.4437086091, 117.6092715231, 107.5562913906);fill:rgb(149.4437086091, 117.6092715231, 107.5562913906);}#graph-div .label2{fill:hsl(194.4, 16.5562913907%, 49.6078431373%);}#graph-div .arrow2{stroke:hsl(194.4, 16.5562913907%, 49.6078431373%);}#graph-div .branch-label3{fill:#2c2c2c;}#graph-div .commit3{stroke:hsl(23.0769230769, 49.0566037736%, 40.7843137255%);fill:hsl(23.0769230769, 49.0566037736%, 40.7843137255%);}#graph-div .commit-highlight3{stroke:rgb(99.9811320754, 162.7735849057, 202.0188679245);fill:rgb(99.9811320754, 162.7735849057, 202.0188679245);}#graph-div .label3{fill:hsl(23.0769230769, 49.0566037736%, 40.7843137255%);}#graph-div .arrow3{stroke:hsl(23.0769230769, 49.0566037736%, 40.7843137255%);}#graph-div .branch-label4{fill:lightgrey;}#graph-div .commit4{stroke:hsl(0, 83.3333333333%, 43.5294117647%);fill:hsl(0, 83.3333333333%, 43.5294117647%);}#graph-div .commit-highlight4{stroke:rgb(51.5000000001, 236.5, 236.5);fill:rgb(51.5000000001, 236.5, 236.5);}#graph-div .label4{fill:hsl(0, 83.3333333333%, 43.5294117647%);}#graph-div .arrow4{stroke:hsl(0, 83.3333333333%, 43.5294117647%);}#graph-div .branch-label5{fill:lightgrey;}#graph-div .commit5{stroke:hsl(289.1666666667, 100%, 24.1176470588%);fill:hsl(289.1666666667, 100%, 24.1176470588%);}#graph-div .commit-highlight5{stroke:rgb(154.2083333334, 255, 132.0000000001);fill:rgb(154.2083333334, 255, 132.0000000001);}#graph-div .label5{fill:hsl(289.1666666667, 100%, 24.1176470588%);}#graph-div .arrow5{stroke:hsl(289.1666666667, 100%, 24.1176470588%);}#graph-div .branch-label6{fill:lightgrey;}#graph-div .commit6{stroke:hsl(35.1315789474, 98.7012987013%, 40.1960784314%);fill:hsl(35.1315789474, 98.7012987013%, 40.1960784314%);}#graph-div .commit-highlight6{stroke:rgb(51.331168831, 135.1948051946, 253.6688311688);fill:rgb(51.331168831, 135.1948051946, 253.6688311688);}#graph-div .label6{fill:hsl(35.1315789474, 98.7012987013%, 40.1960784314%);}#graph-div .arrow6{stroke:hsl(35.1315789474, 98.7012987013%, 40.1960784314%);}#graph-div .branch-label7{fill:lightgrey;}#graph-div .commit7{stroke:hsl(106.1538461538, 84.4155844156%, 35.0980392157%);fill:hsl(106.1538461538, 84.4155844156%, 35.0980392157%);}#graph-div .commit-highlight7{stroke:rgb(206.1818181817, 89.948051948, 241.051948052);fill:rgb(206.1818181817, 89.948051948, 241.051948052);}#graph-div .label7{fill:hsl(106.1538461538, 84.4155844156%, 35.0980392157%);}#graph-div .arrow7{stroke:hsl(106.1538461538, 84.4155844156%, 35.0980392157%);}#graph-div .branch{stroke-width:1;stroke:lightgrey;stroke-dasharray:2;}#graph-div .commit-label{font-size:10px;fill:rgb(183.8476190475, 181.5523809523, 181.5523809523);}#graph-div .commit-label-bkg{font-size:10px;fill:hsl(180, 1.5873015873%, 28.3529411765%);opacity:0.5;}#graph-div .tag-label{font-size:10px;fill:#e0dfdf;}#graph-div .tag-label-bkg{fill:#1f2020;stroke:#cccccc;}#graph-div .tag-hole{fill:#ccc;}#graph-div .commit-merge{stroke:#1f2020;fill:#1f2020;}#graph-div .commit-reverse{stroke:#1f2020;fill:#1f2020;stroke-width:3;}#graph-div .commit-highlight-inner{stroke:#1f2020;fill:#1f2020;}#graph-div .arrow{stroke-width:8;stroke-linecap:round;fill:none;}#graph-div .gitTitleText{text-anchor:middle;font-size:18px;fill:#ccc;}#graph-div :root{--mermaid-font-family:"trebuchet ms",verdana,arial,sans-serif;}</style><g></g><g class="commit-bullets"></g><g class="commit-labels"></g><g><line class="branch branch0" y2="0" x2="1550" y1="0" x1="0"></line><rect transform="translate(-19, -9.5)" height="23" width="53.25" y="-1.5" x="-69.25" ry="4" rx="4" class="branchLabelBkg label0"></rect><g class="branchLabel"><g transform="translate(-79.25, -10.5)" class="label branch-label0"><text><tspan class="row" x="0" dy="1em" xml:space="preserve">main</tspan></text></g></g><line class="branch branch1" y2="90" x2="1550" y1="90" x1="0"></line><rect transform="translate(-19, 80.5)" height="23" width="74.5078125" y="-1.5" x="-90.5078125" ry="4" rx="4" class="branchLabelBkg label1"></rect><g class="branchLabel"><g transform="translate(-100.5078125, 79.5)" class="label branch-label1"><text><tspan class="row" x="0" dy="1em" xml:space="preserve">develop</tspan></text></g></g><line class="branch branch2" y2="180" x2="1550" y1="180" x1="0"></line><rect transform="translate(-19, 170.5)" height="23" width="78.96875" y="-1.5" x="-94.96875" ry="4" rx="4" class="branchLabelBkg label2"></rect><g class="branchLabel"><g transform="translate(-104.96875, 169.5)" class="label branch-label2"><text><tspan class="row" x="0" dy="1em" xml:space="preserve">bugfix/1</tspan></text></g></g><line class="branch branch3" y2="270" x2="1550" y1="270" x1="0"></line><rect transform="translate(-19, 260.5)" height="23" width="123.15625" y="-1.5" x="-139.15625" ry="4" rx="4" class="branchLabelBkg label3"></rect><g class="branchLabel"><g transform="translate(-149.15625, 259.5)" class="label branch-label3"><text><tspan class="row" x="0" dy="1em" xml:space="preserve">release/v1.2.1</tspan></text></g></g><line class="branch branch4" y2="360" x2="1550" y1="360" x1="0"></line><rect transform="translate(-19, 350.5)" height="23" width="46.546875" y="-1.5" x="-62.546875" ry="4" rx="4" class="branchLabelBkg label4"></rect><g class="branchLabel"><g transform="translate(-72.546875, 349.5)" class="label branch-label4"><text><tspan class="row" x="0" dy="1em" xml:space="preserve">test</tspan></text></g></g><line class="branch branch5" y2="450" x2="1550" y1="450" x1="0"></line><rect transform="translate(-19, 440.5)" height="23" width="68.59375" y="-1.5" x="-84.59375" ry="4" rx="4" class="branchLabelBkg label5"></rect><g class="branchLabel"><g transform="translate(-94.59375, 439.5)" class="label branch-label5"><text><tspan class="row" x="0" dy="1em" xml:space="preserve">staging</tspan></text></g></g><line class="branch branch6" y2="540" x2="1550" y1="540" x1="0"></line><rect transform="translate(-19, 530.5)" height="23" width="87.859375" y="-1.5" x="-103.859375" ry="4" rx="4" class="branchLabelBkg label6"></rect><g class="branchLabel"><g transform="translate(-113.859375, 529.5)" class="label branch-label6"><text><tspan class="row" x="0" dy="1em" xml:space="preserve">feature/1</tspan></text></g></g><line class="branch branch7" y2="630" x2="1550" y1="630" x1="0"></line><rect transform="translate(-19, 620.5)" height="23" width="87.859375" y="-1.5" x="-103.859375" ry="4" rx="4" class="branchLabelBkg label7"></rect><g class="branchLabel"><g transform="translate(-113.859375, 619.5)" class="label branch-label7"><text><tspan class="row" x="0" dy="1em" xml:space="preserve">feature/2</tspan></text></g></g><line class="branch branch0" y2="720" x2="1550" y1="720" x1="0"></line><rect transform="translate(-19, 710.5)" height="23" width="217.7421875" y="-1.5" x="-233.7421875" ry="4" rx="4" class="branchLabelBkg label0"></rect><g class="branchLabel"><g transform="translate(-243.7421875, 709.5)" class="label branch-label0"><text><tspan class="row" x="0" dy="1em" xml:space="preserve">feature/2-develop-conflicts</tspan></text></g></g><line class="branch branch1" y2="810" x2="1550" y1="810" x1="0"></line><rect transform="translate(-19, 800.5)" height="23" width="123.7578125" y="-1.5" x="-139.7578125" ry="4" rx="4" class="branchLabelBkg label1"></rect><g class="branchLabel"><g transform="translate(-149.7578125, 799.5)" class="label branch-label1"><text><tspan class="row" x="0" dy="1em" xml:space="preserve">release/v1.1.0</tspan></text></g></g><line class="branch branch2" y2="900" x2="1550" y1="900" x1="0"></line><rect transform="translate(-19, 890.5)" height="23" width="113.3125" y="-1.5" x="-129.3125" ry="4" rx="4" class="branchLabelBkg label2"></rect><g class="branchLabel"><g transform="translate(-139.3125, 889.5)" class="label branch-label2"><text><tspan class="row" x="0" dy="1em" xml:space="preserve">hotfix/v1.1.1</tspan></text></g></g><line class="branch branch3" y2="990" x2="1550" y1="990" x1="0"></line><rect transform="translate(-19, 980.5)" height="23" width="123.7578125" y="-1.5" x="-139.7578125" ry="4" rx="4" class="branchLabelBkg label3"></rect><g class="branchLabel"><g transform="translate(-149.7578125, 979.5)" class="label branch-label3"><text><tspan class="row" x="0" dy="1em" xml:space="preserve">release/v1.2.0</tspan></text></g></g></g><g class="commit-arrows"><path class="arrow arrow6" d="M 10 0 L 10 520 A 20 20, 0, 0, 0, 30 540 L 60 540"></path><path class="arrow arrow6" d="M 60 540 L 60 540  60 540 L 110 540"></path><path class="arrow arrow1" d="M 10 0 L 10 70 A 20 20, 0, 0, 0, 30 90 L 160 90"></path><path class="arrow arrow6" d="M 110 540 L 140 540 A 20 20, 0, 0, 0, 160 520 L 160 90"></path><path class="arrow arrow7" d="M 10 0 L 10 610 A 20 20, 0, 0, 0, 30 630 L 210 630"></path><path class="arrow arrow7" d="M 210 630 L 210 630  210 630 L 260 630"></path><path class="arrow arrow7" d="M 260 630 L 260 630  260 630 L 310 630"></path><path class="arrow arrow0" d="M 310 630 L 310 700 A 20 20, 0, 0, 0, 330 720 L 360 720"></path><path class="arrow arrow0" d="M 160 90 L 160 700 A 20 20, 0, 0, 0, 180 720 L 360 720"></path><path class="arrow arrow1" d="M 160 90 L 160 90  160 90 L 410 90"></path><path class="arrow arrow0" d="M 360 720 L 390 720 A 20 20, 0, 0, 0, 410 700 L 410 90"></path><path class="arrow arrow4" d="M 10 0 L 10 340 A 20 20, 0, 0, 0, 30 360 L 460 360"></path><path class="arrow arrow6" d="M 110 540 L 440 540 A 20 20, 0, 0, 0, 460 520 L 460 360"></path><path class="arrow arrow5" d="M 10 0 L 10 430 A 20 20, 0, 0, 0, 30 450 L 510 450"></path><path class="arrow arrow6" d="M 110 540 L 490 540 A 20 20, 0, 0, 0, 510 520 L 510 450"></path><path class="arrow arrow1" d="M 10 0 L 10 790 A 20 20, 0, 0, 0, 30 810 L 560 810"></path><path class="arrow arrow1" d="M 110 540 L 110 790 A 20 20, 0, 0, 0, 130 810 L 560 810"></path><path class="arrow arrow0" d="M 10 0 L 10 0  10 0 L 610 0"></path><path class="arrow arrow1" d="M 560 810 L 590 810 A 20 20, 0, 0, 0, 610 790 L 610 0"></path><path class="arrow arrow2" d="M 610 0 L 610 880 A 20 20, 0, 0, 0, 630 900 L 660 900"></path><path class="arrow arrow0" d="M 610 0 L 610 0  610 0 L 710 0"></path><path class="arrow arrow2" d="M 660 900 L 690 900 A 20 20, 0, 0, 0, 710 880 L 710 0"></path><path class="arrow arrow5" d="M 510 450 L 510 450  510 450 L 760 450"></path><path class="arrow arrow2" d="M 660 900 L 740 900 A 20 20, 0, 0, 0, 760 880 L 760 450"></path><path class="arrow arrow4" d="M 460 360 L 460 360  460 360 L 810 360"></path><path class="arrow arrow2" d="M 660 900 L 790 900 A 20 20, 0, 0, 0, 810 880 L 810 360"></path><path class="arrow arrow1" d="M 410 90 L 410 90  410 90 L 860 90"></path><path class="arrow arrow2" d="M 660 900 L 840 900 A 20 20, 0, 0, 0, 860 880 L 860 90"></path><path class="arrow arrow4" d="M 810 360 L 810 360  810 360 L 910 360"></path><path class="arrow arrow4" d="M 310 630 L 310 505 A 10 10, 0, 0, 1, 320 495 L 900 495 A 10 10, 0, 0, 0, 910 485 L 910 360"></path><path class="arrow arrow7" d="M 310 630 L 310 630  310 630 L 960 630"></path><path class="arrow arrow1" d="M 860 90 L 860 90  860 90 L 1010 90"></path><path class="arrow arrow7" d="M 960 630 L 990 630 A 20 20, 0, 0, 0, 1010 610 L 1010 90"></path><path class="arrow arrow4" d="M 910 360 L 910 360  910 360 L 1060 360"></path><path class="arrow arrow7" d="M 960 630 L 1040 630 A 20 20, 0, 0, 0, 1060 610 L 1060 360"></path><path class="arrow arrow5" d="M 760 450 L 760 450  760 450 L 1110 450"></path><path class="arrow arrow7" d="M 960 630 L 1090 630 A 20 20, 0, 0, 0, 1110 610 L 1110 450"></path><path class="arrow arrow3" d="M 710 0 L 710 970 A 20 20, 0, 0, 0, 730 990 L 1160 990"></path><path class="arrow arrow3" d="M 960 630 L 960 970 A 20 20, 0, 0, 0, 980 990 L 1160 990"></path><path class="arrow arrow0" d="M 710 0 L 710 0  710 0 L 1210 0"></path><path class="arrow arrow3" d="M 1160 990 L 1190 990 A 20 20, 0, 0, 0, 1210 970 L 1210 0"></path><path class="arrow arrow2" d="M 1210 0 L 1210 160 A 20 20, 0, 0, 0, 1230 180 L 1260 180"></path><path class="arrow arrow1" d="M 1010 90 L 1010 90  1010 90 L 1310 90"></path><path class="arrow arrow2" d="M 1260 180 L 1290 180 A 20 20, 0, 0, 0, 1310 160 L 1310 90"></path><path class="arrow arrow4" d="M 1060 360 L 1060 360  1060 360 L 1360 360"></path><path class="arrow arrow4" d="M 1260 180 L 1260 340 A 20 20, 0, 0, 0, 1280 360 L 1360 360"></path><path class="arrow arrow5" d="M 1110 450 L 1110 450  1110 450 L 1410 450"></path><path class="arrow arrow5" d="M 1260 180 L 1260 430 A 20 20, 0, 0, 0, 1280 450 L 1410 450"></path><path class="arrow arrow3" d="M 1210 0 L 1210 250 A 20 20, 0, 0, 0, 1230 270 L 1460 270"></path><path class="arrow arrow3" d="M 1260 180 L 1260 250 A 20 20, 0, 0, 0, 1280 270 L 1460 270"></path><path class="arrow arrow0" d="M 1210 0 L 1210 0  1210 0 L 1510 0"></path><path class="arrow arrow3" d="M 1460 270 L 1490 270 A 20 20, 0, 0, 0, 1510 250 L 1510 0"></path></g><g class="commit-bullets"><circle class="commit 0-5495318 commit0" r="10" cy="0" cx="10"></circle><circle class="commit F1-1 commit6" r="10" cy="540" cx="60"></circle><circle class="commit F1-2 commit6" r="10" cy="540" cx="110"></circle><circle class="commit PR Feature1 into Develop commit1" r="9" cy="90" cx="160"></circle><circle class="commit commit-merge PR Feature1 into Develop commit1" r="6" cy="90" cx="160"></circle><circle class="commit F2-1 commit7" r="10" cy="630" cx="210"></circle><circle class="commit F2-2 commit7" r="10" cy="630" cx="260"></circle><circle class="commit F2-3 commit7" r="10" cy="630" cx="310"></circle><circle class="commit PR Develop into Feature2 Develop Conflicts commit0" r="9" cy="720" cx="360"></circle><circle class="commit commit-merge PR Develop into Feature2 Develop Conflicts commit0" r="6" cy="720" cx="360"></circle><circle class="commit PR Feature2 Develop Conflicts into Develop commit1" r="9" cy="90" cx="410"></circle><circle class="commit commit-merge PR Feature2 Develop Conflicts into Develop commit1" r="6" cy="90" cx="410"></circle><circle class="commit PR Feature1 into Test commit4" r="9" cy="360" cx="460"></circle><circle class="commit commit-merge PR Feature1 into Test commit4" r="6" cy="360" cx="460"></circle><circle class="commit PR Feature1 into Staging commit5" r="9" cy="450" cx="510"></circle><circle class="commit commit-merge PR Feature1 into Staging commit5" r="6" cy="450" cx="510"></circle><circle class="commit PR Feature1 into Release v1.1.0 commit1" r="9" cy="810" cx="560"></circle><circle class="commit commit-merge PR Feature1 into Release v1.1.0 commit1" r="6" cy="810" cx="560"></circle><circle class="commit PR Release v1.1.0 into Main commit0" r="9" cy="0" cx="610"></circle><circle class="commit commit-merge PR Release v1.1.0 into Main commit0" r="6" cy="0" cx="610"></circle><circle class="commit HF1-1 commit2" r="10" cy="900" cx="660"></circle><circle class="commit PR Hotfix v1.1.1 into Main commit0" r="9" cy="0" cx="710"></circle><circle class="commit commit-merge PR Hotfix v1.1.1 into Main commit0" r="6" cy="0" cx="710"></circle><circle class="commit PR Hotfix v1.1.1 into Staging commit5" r="9" cy="450" cx="760"></circle><circle class="commit commit-merge PR Hotfix v1.1.1 into Staging commit5" r="6" cy="450" cx="760"></circle><circle class="commit PR Hotfix v1.1.1 into Test commit4" r="9" cy="360" cx="810"></circle><circle class="commit commit-merge PR Hotfix v1.1.1 into Test commit4" r="6" cy="360" cx="810"></circle><circle class="commit PR Hotfix v1.1.1 into Develop commit1" r="9" cy="90" cx="860"></circle><circle class="commit commit-merge PR Hotfix v1.1.1 into Develop commit1" r="6" cy="90" cx="860"></circle><circle class="commit PR Feature2 into Test: 1 commit4" r="9" cy="360" cx="910"></circle><circle class="commit commit-merge PR Feature2 into Test: 1 commit4" r="6" cy="360" cx="910"></circle><circle class="commit F2-4 commit7" r="10" cy="630" cx="960"></circle><circle class="commit PR Feature2 into Develop commit1" r="9" cy="90" cx="1010"></circle><circle class="commit commit-merge PR Feature2 into Develop commit1" r="6" cy="90" cx="1010"></circle><circle class="commit PR Feature2 into Test: 2 commit4" r="9" cy="360" cx="1060"></circle><circle class="commit commit-merge PR Feature2 into Test: 2 commit4" r="6" cy="360" cx="1060"></circle><circle class="commit PR Feature2 into Staging commit5" r="9" cy="450" cx="1110"></circle><circle class="commit commit-merge PR Feature2 into Staging commit5" r="6" cy="450" cx="1110"></circle><circle class="commit PR Feature2 into Release v1.2.0 commit3" r="9" cy="990" cx="1160"></circle><circle class="commit commit-merge PR Feature2 into Release v1.2.0 commit3" r="6" cy="990" cx="1160"></circle><circle class="commit PR Release v1.2.0 into Main commit0" r="9" cy="0" cx="1210"></circle><circle class="commit commit-merge PR Release v1.2.0 into Main commit0" r="6" cy="0" cx="1210"></circle><circle class="commit BF1-1 commit2" r="10" cy="180" cx="1260"></circle><circle class="commit PR BugFix1 into Develop commit1" r="9" cy="90" cx="1310"></circle><circle class="commit commit-merge PR BugFix1 into Develop commit1" r="6" cy="90" cx="1310"></circle><circle class="commit PR BugFix1 into Test commit4" r="9" cy="360" cx="1360"></circle><circle class="commit commit-merge PR BugFix1 into Test commit4" r="6" cy="360" cx="1360"></circle><circle class="commit PR BugFix1 into Staging commit5" r="9" cy="450" cx="1410"></circle><circle class="commit commit-merge PR BugFix1 into Staging commit5" r="6" cy="450" cx="1410"></circle><circle class="commit PR Feature2 into Release v1.2.1 commit3" r="9" cy="270" cx="1460"></circle><circle class="commit commit-merge PR Feature2 into Release v1.2.1 commit3" r="6" cy="270" cx="1460"></circle><circle class="commit PR Release v1.2.1 into Main commit0" r="9" cy="0" cx="1510"></circle><circle class="commit commit-merge PR Release v1.2.1 into Main commit0" r="6" cy="0" cx="1510"></circle></g><g class="commit-labels"><g transform="translate(-28.924726562500002, 25.7694921875) rotate(-45, 0, 0)"><rect height="15" width="50.380859375" y="13.5" x="-15.1904296875" class="commit-label-bkg"></rect><text class="commit-label" y="25" x="-13.1904296875">0-5495318</text></g><polygon points="-16.86474609375,-17.2
          -16.86474609375,-21.2
          -8.86474609375,-26.7
          28.86474609375,-26.7
          28.86474609375,-11.7
          -8.86474609375,-11.7" class="tag-label-bkg"></polygon><circle class="tag-hole" r="1.5" cy="-19.2" cx="-12.86474609375"></circle><text x="-4.86474609375" class="tag-label" y="-16">v1.0.0</text><g transform="translate(-18.6803125, 16.6034375) rotate(-45, 50, 540)"><rect height="15" width="23.421875" y="553.5" x="48.2890625" class="commit-label-bkg"></rect><text class="commit-label" y="565" x="50.2890625">F1-1</text></g><g transform="translate(-18.96271484375, 16.85611328125) rotate(-45, 100, 540)"><rect height="15" width="24.1650390625" y="553.5" x="97.91748046875" class="commit-label-bkg"></rect><text class="commit-label" y="565" x="99.91748046875">F1-2</text></g><g transform="translate(-54.73615234375001, 48.86392578125) rotate(-45, 150, 90)"><rect height="15" width="118.3056640625" y="103.5" x="100.84716796875" class="commit-label-bkg"></rect><text class="commit-label" y="115" x="102.84716796875">PR Feature1 into Develop</text></g><g transform="translate(-18.6803125, 16.6034375) rotate(-45, 200, 630)"><rect height="15" width="23.421875" y="643.5" x="198.2890625" class="commit-label-bkg"></rect><text class="commit-label" y="655" x="200.2890625">F2-1</text></g><g transform="translate(-18.96271484375, 16.85611328125) rotate(-45, 250, 630)"><rect height="15" width="24.1650390625" y="643.5" x="247.91748046875" class="commit-label-bkg"></rect><text class="commit-label" y="655" x="249.91748046875">F2-2</text></g><g transform="translate(-18.6803125, 16.6034375) rotate(-45, 300, 630)"><rect height="15" width="23.421875" y="643.5" x="298.2890625" class="commit-label-bkg"></rect><text class="commit-label" y="655" x="300.2890625">F2-3</text></g><g transform="translate(-85.76181640624999, 76.62373046875) rotate(-45, 350, 720)"><rect height="15" width="199.9521484375" y="733.5" x="260.02392578125" class="commit-label-bkg"></rect><text class="commit-label" y="745" x="262.02392578125">PR Develop into Feature2 Develop Conflicts</text></g><g transform="translate(-85.56291015625001, 76.44576171875) rotate(-45, 400, 90)"><rect height="15" width="199.4287109375" y="103.5" x="310.28564453125" class="commit-label-bkg"></rect><text class="commit-label" y="115" x="312.28564453125">PR Feature2 Develop Conflicts into Develop</text></g><g transform="translate(-48.134765625, 42.957421875) rotate(-45, 450, 360)"><rect height="15" width="100.93359375" y="373.5" x="409.533203125" class="commit-label-bkg"></rect><text class="commit-label" y="385" x="411.533203125">PR Feature1 into Test</text></g><g transform="translate(-53.63771484375, 47.88111328125) rotate(-45, 500, 450)"><rect height="15" width="115.4150390625" y="463.5" x="452.29248046875" class="commit-label-bkg"></rect><text class="commit-label" y="475" x="454.29248046875">PR Feature1 into Staging</text></g><g transform="translate(-65.9524609375, 58.8995703125) rotate(-45, 550, 810)"><rect height="15" width="147.822265625" y="823.5" x="486.0888671875" class="commit-label-bkg"></rect><text class="commit-label" y="835" x="488.0888671875">PR Feature1 into Release v1.1.0</text></g><g transform="translate(-58.53244140625, 52.26060546875) rotate(-45, 600, 0)"><rect height="15" width="128.2958984375" y="13.5" x="545.85205078125" class="commit-label-bkg"></rect><text class="commit-label" y="25" x="547.85205078125">PR Release v1.1.0 into Main</text></g><polygon points="583.13525390625,-17.2
          583.13525390625,-21.2
          591.13525390625,-26.7
          628.86474609375,-26.7
          628.86474609375,-11.7
          591.13525390625,-11.7" class="tag-label-bkg"></polygon><circle class="tag-hole" r="1.5" cy="-19.2" cx="587.13525390625"></circle><text x="595.13525390625" class="tag-label" y="-16">v1.1.0</text><g transform="translate(-21.1621875, 18.8240625) rotate(-45, 650, 900)"><rect height="15" width="29.953125" y="913.5" x="645.0234375" class="commit-label-bkg"></rect><text class="commit-label" y="925" x="647.0234375">HF1-1</text></g><g transform="translate(-56.02570312500001, 50.017734375) rotate(-45, 700, 0)"><rect height="15" width="121.69921875" y="13.5" x="649.150390625" class="commit-label-bkg"></rect><text class="commit-label" y="25" x="651.150390625">PR Hotfix v1.1.1 into Main</text></g><polygon points="683.5078125,-17.2
          683.5078125,-21.2
          691.5078125,-26.7
          728.4921875,-26.7
          728.4921875,-11.7
          691.5078125,-11.7" class="tag-label-bkg"></polygon><circle class="tag-hole" r="1.5" cy="-19.2" cx="687.5078125"></circle><text x="695.5078125" class="tag-label" y="-16">v1.1.1</text><g transform="translate(-60.64767578125, 54.15318359375) rotate(-45, 750, 450)"><rect height="15" width="133.8623046875" y="463.5" x="693.06884765625" class="commit-label-bkg"></rect><text class="commit-label" y="475" x="695.06884765625">PR Hotfix v1.1.1 into Staging</text></g><g transform="translate(-55.144726562500004, 49.2294921875) rotate(-45, 800, 360)"><rect height="15" width="119.380859375" y="373.5" x="750.3095703125" class="commit-label-bkg"></rect><text class="commit-label" y="385" x="752.3095703125">PR Hotfix v1.1.1 into Test</text></g><g transform="translate(-61.74611328125, 55.13599609375) rotate(-45, 850, 90)"><rect height="15" width="136.7529296875" y="103.5" x="791.62353515625" class="commit-label-bkg"></rect><text class="commit-label" y="115" x="793.62353515625">PR Hotfix v1.1.1 into Develop</text></g><g transform="translate(-52.2746875, 46.6615625) rotate(-45, 900, 360)"><rect height="15" width="111.828125" y="373.5" x="854.0859375" class="commit-label-bkg"></rect><text class="commit-label" y="385" x="856.0859375">PR Feature2 into Test: 1</text></g><g transform="translate(-18.96271484375, 16.85611328125) rotate(-45, 950, 630)"><rect height="15" width="24.1650390625" y="643.5" x="947.91748046875" class="commit-label-bkg"></rect><text class="commit-label" y="655" x="949.91748046875">F2-4</text></g><g transform="translate(-54.73615234375001, 48.86392578125) rotate(-45, 1000, 90)"><rect height="15" width="118.3056640625" y="103.5" x="950.84716796875" class="commit-label-bkg"></rect><text class="commit-label" y="115" x="952.84716796875">PR Feature2 into Develop</text></g><g transform="translate(-52.56154296875, 46.91822265625) rotate(-45, 1050, 360)"><rect height="15" width="112.5830078125" y="373.5" x="1003.70849609375" class="commit-label-bkg"></rect><text class="commit-label" y="385" x="1005.70849609375">PR Feature2 into Test: 2</text></g><g transform="translate(-53.63771484375, 47.88111328125) rotate(-45, 1100, 450)"><rect height="15" width="115.4150390625" y="463.5" x="1052.29248046875" class="commit-label-bkg"></rect><text class="commit-label" y="475" x="1054.29248046875">PR Feature2 into Staging</text></g><g transform="translate(-65.9524609375, 58.8995703125) rotate(-45, 1150, 990)"><rect height="15" width="147.822265625" y="1003.5" x="1086.0888671875" class="commit-label-bkg"></rect><text class="commit-label" y="1015" x="1088.0888671875">PR Feature2 into Release v1.2.0</text></g><g transform="translate(-58.53244140625, 52.26060546875) rotate(-45, 1200, 0)"><rect height="15" width="128.2958984375" y="13.5" x="1145.85205078125" class="commit-label-bkg"></rect><text class="commit-label" y="25" x="1147.85205078125">PR Release v1.2.0 into Main</text></g><polygon points="1183.13525390625,-17.2
          1183.13525390625,-21.2
          1191.13525390625,-26.7
          1228.86474609375,-26.7
          1228.86474609375,-11.7
          1191.13525390625,-11.7" class="tag-label-bkg"></polygon><circle class="tag-hole" r="1.5" cy="-19.2" cx="1187.13525390625"></circle><text x="1195.13525390625" class="tag-label" y="-16">v1.2.0</text><g transform="translate(-20.8296875, 18.5265625) rotate(-45, 1250, 180)"><rect height="15" width="29.078125" y="193.5" x="1245.4609375" class="commit-label-bkg"></rect><text class="commit-label" y="205" x="1247.4609375">BF1-1</text></g><g transform="translate(-52.656171875, 47.002890625) rotate(-45, 1300, 90)"><rect height="15" width="112.83203125" y="103.5" x="1253.583984375" class="commit-label-bkg"></rect><text class="commit-label" y="115" x="1255.583984375">PR BugFix1 into Develop</text></g><g transform="translate(-46.05478515625, 41.09638671875) rotate(-45, 1350, 360)"><rect height="15" width="95.4599609375" y="373.5" x="1312.27001953125" class="commit-label-bkg"></rect><text class="commit-label" y="385" x="1314.27001953125">PR BugFix1 into Test</text></g><g transform="translate(-51.557734375, 46.020078125) rotate(-45, 1400, 450)"><rect height="15" width="109.94140625" y="463.5" x="1355.029296875" class="commit-label-bkg"></rect><text class="commit-label" y="475" x="1357.029296875">PR BugFix1 into Staging</text></g><g transform="translate(-65.66968750000001, 58.646562499999995) rotate(-45, 1450, 270)"><rect height="15" width="147.078125" y="283.5" x="1386.4609375" class="commit-label-bkg"></rect><text class="commit-label" y="295" x="1388.4609375">PR Feature2 into Release v1.2.1</text></g><g transform="translate(-58.53244140625, 52.26060546875) rotate(-45, 1500, 0)"><rect height="15" width="128.2958984375" y="13.5" x="1445.85205078125" class="commit-label-bkg"></rect><text class="commit-label" y="25" x="1447.85205078125">PR Release v1.2.1 into Main</text></g><polygon points="1483.5078125,-17.2
          1483.5078125,-21.2
          1491.5078125,-26.7
          1528.4921875,-26.7
          1528.4921875,-11.7
          1491.5078125,-11.7" class="tag-label-bkg"></polygon><circle class="tag-hole" r="1.5" cy="-19.2" cx="1487.5078125"></circle><text x="1495.5078125" class="tag-label" y="-16">v1.2.1</text></g></svg>